<svg width="25" height="25" viewBox="0 0 25 25" fill="none" xmlns="http://www.w3.org/2000/svg">
<g clip-path="url(#clip0)">
<path d="M16.576 13.3152H0.815217C0.365216 13.3152 0 12.95 0 12.5C0 12.05 0.365216 11.6848 0.815217 11.6848H16.576C17.026 11.6848 17.3912 12.05 17.3912 12.5C17.3912 12.95 17.026 13.3152 16.576 13.3152Z" fill="#FBC442" fill-opacity="0.8"/>
<path d="M12.2281 17.663C12.0193 17.663 11.8107 17.5838 11.6519 17.424C11.3335 17.1056 11.3335 16.5893 11.6519 16.2706L15.4237 12.4991L11.6519 8.72728C11.3335 8.40884 11.3335 7.89236 11.6519 7.57392C11.9706 7.25547 12.4868 7.25547 12.8053 7.57392L17.153 11.9219C17.4715 12.2403 17.4715 12.7566 17.153 13.075L12.8053 17.4228C12.6455 17.5838 12.4369 17.663 12.2281 17.663Z" fill="#FBC442" fill-opacity="0.8"/>
<path d="M13.0436 24.4566C8.09678 24.4566 3.72951 21.4806 1.91537 16.8739C1.75017 16.4565 1.95657 15.9826 2.37512 15.8174C2.79248 15.6544 3.26756 15.8576 3.43276 16.2784C4.99911 20.2556 8.77188 22.8262 13.0436 22.8262C18.737 22.8262 23.3698 18.1934 23.3698 12.5C23.3698 6.80666 18.737 2.17389 13.0436 2.17389C8.77188 2.17389 4.99911 4.74453 3.43276 8.7217C3.26637 9.14245 2.79248 9.34565 2.37512 9.18265C1.95657 9.01746 1.75017 8.54357 1.91537 8.12621C3.72951 3.51952 8.09678 0.543457 13.0436 0.543457C19.636 0.543457 25.0002 5.90765 25.0002 12.5C25.0002 19.0924 19.636 24.4566 13.0436 24.4566Z" fill="#FBC442" fill-opacity="0.8"/>
</g>
<defs>
<clipPath id="clip0">
<rect width="25" height="25" fill="white"/>
</clipPath>
</defs>
</svg>
