<svg width="30" height="30" viewBox="0 0 30 30" fill="none" xmlns="http://www.w3.org/2000/svg">
<g clip-path="url(#clip0)">
<path d="M25.6694 16.0149H23.3494C23.5859 16.6624 23.715 17.3611 23.715 18.0893V26.8579C23.715 27.1616 23.6622 27.453 23.566 27.7241H27.4017C28.8345 27.7241 30.0001 26.5584 30.0001 25.1256V20.3455C30.0001 17.9576 28.0574 16.0149 25.6694 16.0149Z" fill="#21343A"/>
<path d="M6.28507 18.0894C6.28507 17.361 6.41427 16.6624 6.65075 16.0149H4.33067C1.94274 16.0149 0 17.9576 0 20.3456V25.1257C0 26.5585 1.16561 27.7241 2.5984 27.7241H6.43407C6.33792 27.4529 6.28507 27.1616 6.28507 26.8579V18.0894Z" fill="#21343A"/>
<path d="M17.652 13.7587H12.348C9.96007 13.7587 8.01733 15.7014 8.01733 18.0893V26.8579C8.01733 27.3362 8.40511 27.724 8.88347 27.724H21.1166C21.5949 27.724 21.9827 27.3363 21.9827 26.8579V18.0893C21.9827 15.7014 20.04 13.7587 17.652 13.7587Z" fill="#21343A"/>
<path d="M15 2.27576C12.1282 2.27576 9.79187 4.61213 9.79187 7.48399C9.79187 9.43194 10.867 11.1332 12.4548 12.0264C13.2079 12.4501 14.0761 12.6922 15 12.6922C15.9239 12.6922 16.7922 12.4501 17.5453 12.0264C19.1331 11.1332 20.2082 9.43188 20.2082 7.48399C20.2082 4.61219 17.8718 2.27576 15 2.27576Z" fill="#21343A"/>
<path d="M5.8545 7.13025C3.70674 7.13025 1.95947 8.87752 1.95947 11.0253C1.95947 13.173 3.70674 14.9203 5.8545 14.9203C6.39931 14.9203 6.9181 14.8075 7.38937 14.6046C8.20417 14.2538 8.87601 13.6328 9.29174 12.855C9.58353 12.3091 9.74953 11.6863 9.74953 11.0253C9.74953 8.87758 8.00226 7.13025 5.8545 7.13025Z" fill="#21343A"/>
<path d="M24.1455 7.13025C21.9977 7.13025 20.2504 8.87752 20.2504 11.0253C20.2504 11.6863 20.4164 12.3091 20.7082 12.855C21.1239 13.6329 21.7958 14.2539 22.6106 14.6046C23.0819 14.8075 23.6006 14.9203 24.1455 14.9203C26.2932 14.9203 28.0405 13.173 28.0405 11.0253C28.0405 8.87752 26.2932 7.13025 24.1455 7.13025Z" fill="#21343A"/>
</g>
<defs>
<clipPath id="clip0">
<rect width="30" height="30" fill="white"/>
</clipPath>
</defs>
</svg>
