<svg width="30" height="30" viewBox="0 0 30 30" fill="none" xmlns="http://www.w3.org/2000/svg">
<g clip-path="url(#clip0)">
<path d="M29.9046 13.2723C29.8408 13.1198 29.7496 12.981 29.6333 12.8648L25.8846 9.11599C25.3958 8.62849 24.6058 8.62849 24.1171 9.11599C23.6283 9.60472 23.6283 10.396 24.1171 10.8835L25.7333 12.4997H18.7508C18.0595 12.4997 17.5008 13.0597 17.5008 13.7497C17.5008 14.4397 18.0595 14.9997 18.7508 14.9997H25.7333L24.117 16.6159C23.6283 17.1047 23.6283 17.8959 24.117 18.3834C24.3608 18.6284 24.6807 18.7497 25.0008 18.7497C25.3208 18.7497 25.6408 18.6285 25.8846 18.3834L29.6333 14.6346C29.7496 14.5196 29.8408 14.3809 29.9046 14.2271C30.0308 13.9223 30.0308 13.5773 29.9046 13.2723Z" fill="#21343A"/>
<path d="M21.2511 17.5C20.5599 17.5 20.0011 18.06 20.0011 18.75V25H15.0012V4.99998C15.0012 4.44873 14.6386 3.96123 14.1099 3.8025L9.76862 2.50002H20.0011V8.75004C20.0011 9.44004 20.5599 10 21.2511 10C21.9424 10 22.5011 9.44004 22.5011 8.75004V1.25004C22.5011 0.55998 21.9424 0 21.2511 0H1.25114C1.20614 0 1.16612 0.01875 1.12241 0.0237305C1.06364 0.03 1.00991 0.0399609 0.95366 0.0537305C0.82241 0.0874805 0.70364 0.13875 0.592429 0.208711C0.564949 0.22623 0.531199 0.227461 0.504949 0.247441C0.494871 0.255 0.491121 0.26877 0.481101 0.27627C0.344871 0.38373 0.23114 0.51498 0.14864 0.67125C0.131121 0.705 0.127371 0.74127 0.11366 0.77625C0.0736401 0.87123 0.0299292 0.96375 0.0149292 1.06875C0.00865967 1.10625 0.0199097 1.14123 0.0186792 1.1775C0.0174487 1.20252 0.00115967 1.22502 0.00115967 1.24998V26.25C0.00115967 26.8463 0.42239 27.3588 1.00616 27.475L13.5061 29.975C13.5874 29.9926 13.6699 30.0001 13.7511 30.0001C14.0374 30.0001 14.3186 29.9013 14.5436 29.7163C14.8324 29.4788 15.0011 29.125 15.0011 28.75V27.5H21.2511C21.9424 27.5 22.5011 26.9401 22.5011 26.2501V18.75C22.5011 18.06 21.9424 17.5 21.2511 17.5Z" fill="#21343A"/>
</g>
<defs>
<clipPath id="clip0">
<rect width="30" height="30" fill="white"/>
</clipPath>
</defs>
</svg>
