<svg width="12" height="16" viewBox="0 0 12 16" fill="none" xmlns="http://www.w3.org/2000/svg">
<path d="M10.2211 5.41667H9.53304V3.95833C9.53304 1.94583 7.99189 0.3125 6.09297 0.3125C4.19406 0.3125 2.65291 1.94583 2.65291 3.95833V5.41667H1.96489C1.20808 5.41667 0.588867 6.07292 0.588867 6.875V14.1667C0.588867 14.9688 1.20808 15.625 1.96489 15.625H10.2211C10.9779 15.625 11.5971 14.9688 11.5971 14.1667V6.875C11.5971 6.07292 10.9779 5.41667 10.2211 5.41667ZM6.09297 11.9792C5.33616 11.9792 4.71695 11.3229 4.71695 10.5208C4.71695 9.71875 5.33616 9.0625 6.09297 9.0625C6.84979 9.0625 7.469 9.71875 7.469 10.5208C7.469 11.3229 6.84979 11.9792 6.09297 11.9792ZM8.22581 5.41667H3.96013V3.95833C3.96013 2.71146 4.91647 1.69792 6.09297 1.69792C7.26947 1.69792 8.22581 2.71146 8.22581 3.95833V5.41667Z" fill="#F8565D"/>
</svg>
